<?xml version="1.0" encoding="UTF-8"?>
<svg width="30px" height="29px" viewBox="0 0 30 29" version="1.1" xmlns="http://www.w3.org/2000/svg" xmlns:xlink="http://www.w3.org/1999/xlink">
    <!-- Generator: Sketch 44.1 (41455) - http://www.bohemiancoding.com/sketch -->
    <title>Behance</title>
    <desc>Created with Sketch.</desc>
    <defs></defs>
    <g id="Page-1" stroke="none" stroke-width="1" fill="none" fill-rule="evenodd">
        <g id="Behance" fill="#444444">
            <path d="M12.7,15.1 C12.5,15 12.1,14.9 11.7,14.9 L9.5,14.9 L9.5,17.7 L11.7,17.7 C12.2,17.7 12.5,17.6 12.8,17.5 C13.3,17.3 13.5,16.8 13.5,16.2 C13.4,15.7 13.2,15.3 12.7,15.1 L12.7,15.1 Z" id="Shape"></path>
            <path d="M12.8,12.9 C13.1,12.7 13.2,12.4 13.2,12 C13.2,11.5 13,11.2 12.6,11 C12.3,10.9 11.9,10.8 11.4,10.8 L9.5,10.8 L9.5,13.1 L11.7,13.1 C12.1,13.2 12.5,13.1 12.8,12.9 L12.8,12.9 Z" id="Shape"></path>
            <path d="M20.1,13.1 C19.6,13.1 19.2,13.2 18.9,13.5 C18.6,13.8 18.4,14.2 18.4,14.7 L21.8,14.7 C21.8,14.2 21.6,13.8 21.3,13.5 C20.9,13.3 20.5,13.1 20.1,13.1 L20.1,13.1 Z" id="Shape"></path>
            <path d="M15.1,0.1 C7.2,0.1 0.8,6.5 0.8,14.4 C0.8,22.3 7.2,28.7 15.1,28.7 C23,28.7 29.4,22.3 29.4,14.4 C29.4,6.5 23,0.1 15.1,0.1 L15.1,0.1 Z M18,9.5 L22.2,9.5 L22.2,10.5 L18,10.5 L18,9.5 L18,9.5 Z M15.1,18 C14.9,18.3 14.7,18.6 14.4,18.8 C14.1,19.1 13.7,19.2 13.2,19.3 C12.7,19.4 12.3,19.4 11.7,19.4 L7,19.4 L7,9 L12,9 C13.3,9 14.2,9.4 14.7,10.1 C15,10.5 15.2,11.1 15.2,11.7 C15.2,12.3 15,12.8 14.7,13.2 C14.5,13.4 14.3,13.6 13.9,13.8 C14.4,14 14.8,14.3 15.1,14.7 C15.4,15.1 15.5,15.6 15.5,16.2 C15.6,17 15.4,17.5 15.1,18 L15.1,18 Z M23.8,16 L18.4,16 C18.4,16.8 18.7,17.3 19.2,17.6 C19.5,17.8 19.9,17.9 20.3,17.9 C20.7,17.9 21.1,17.8 21.4,17.6 C21.6,17.5 21.7,17.3 21.8,17.1 L23.8,17.1 C23.7,17.5 23.5,18 23.1,18.4 C22.4,19.1 21.5,19.5 20.3,19.5 C19.3,19.5 18.4,19.2 17.7,18.6 C16.9,18 16.6,17 16.6,15.6 C16.6,14.3 16.9,13.3 17.6,12.6 C18.3,11.9 19.2,11.6 20.3,11.6 C20.9,11.6 21.5,11.7 22.1,11.9 C22.7,12.1 23.1,12.5 23.4,13 C23.7,13.4 23.9,14 24,14.5 C23.8,14.9 23.8,15.3 23.8,16 L23.8,16 Z" id="Shape"></path>
        </g>
    </g>
</svg>