<?xml version="1.0" encoding="UTF-8"?>
<svg width="30px" height="29px" viewBox="0 0 30 29" version="1.1" xmlns="http://www.w3.org/2000/svg" xmlns:xlink="http://www.w3.org/1999/xlink">
    <!-- Generator: Sketch 44.1 (41455) - http://www.bohemiancoding.com/sketch -->
    <title>Dribbble</title>
    <desc>Created with Sketch.</desc>
    <defs></defs>
    <g id="Page-1" stroke="none" stroke-width="1" fill="none" fill-rule="evenodd">
        <g id="Dribbble" fill="#444444">
            <path d="M14.7,14.8 C15.1,14.6 15.5,14.5 15.9,14.4 C15.7,14.1 15.5,13.7 15.4,13.3 C15.3,13.2 15.3,13 15.2,13 C12.6,13.7 9.8,14.2 6.5,14.2 C6.4,16.9 7.4,18.7 8.7,20.1 C10.2,17.8 12.1,15.9 14.7,14.8 L14.7,14.8 Z" id="Shape"></path>
            <path d="M16.5,15.8 C13.6,16.9 11.3,18.5 9.8,21.1 C10.8,21.9 12.1,22.5 13.6,22.8 C15.3,23.1 17.1,22.8 18.3,22.2 C17.9,20 17.3,18 16.6,16.1 C16.6,16.1 16.6,15.9 16.5,15.8 L16.5,15.8 Z" id="Shape"></path>
            <path d="M11.4,6.8 C9,8 7.4,9.9 6.7,12.7 C9.6,12.7 12.2,12.3 14.5,11.6 C13.5,10 12.5,8.3 11.4,6.8 L11.4,6.8 Z" id="Shape"></path>
            <path d="M15,0.1 C7.1,0.1 0.7,6.5 0.7,14.4 C0.7,22.3 7.1,28.7 15,28.7 C22.2,28.7 28.2,23.4 29.2,16.4 C29.3,15.9 29.3,15.4 29.3,14.9 L29.3,14.3 C29.3,6.5 22.9,0.1 15,0.1 L15,0.1 Z M22.3,21.2 C21.5,22.1 20.6,22.8 19.5,23.3 C18.4,23.9 17.1,24.3 15.6,24.4 C12.4,24.6 9.9,23.3 8.3,21.8 C6.6,20.2 5.3,18.1 5.1,15.1 C5,13.5 5.3,12.1 5.8,10.9 C6.3,9.6 6.9,8.7 7.7,7.8 C8.8,6.6 10.4,5.5 12.3,5 C13,4.8 13.7,4.7 14.5,4.6 C17.7,4.4 20.1,5.7 21.8,7.2 C23.5,8.7 24.8,10.9 25,13.9 C25.1,17.1 23.9,19.5 22.3,21.2 L22.3,21.2 Z" id="Shape"></path>
            <path d="M18.1,15.4 C18.8,17.3 19.4,19.3 19.7,21.4 C20.2,21.1 20.6,20.8 21,20.4 C22.2,19.2 23,17.7 23.4,15.7 C21.9,15.4 19.9,15.1 18.1,15.4 L18.1,15.4 Z" id="Shape"></path>
            <path d="M16.2,11.2 C18,10.5 19.6,9.6 20.6,8.1 C19.2,6.9 17.2,5.9 14.6,6 C14,6 13.5,6.1 13,6.2 C14,7.6 15,9.1 15.8,10.5 C16,10.7 16,11 16.2,11.2 L16.2,11.2 Z" id="Shape"></path>
            <path d="M16.8,12.4 C17,12.8 17.2,13.2 17.4,13.6 C17.5,13.7 17.5,13.9 17.6,14 C19.6,13.8 21.8,13.9 23.5,14.3 C23.4,12 22.7,10.4 21.6,9 C20.3,10.6 18.7,11.6 16.8,12.4 L16.8,12.4 Z" id="Shape"></path>
        </g>
    </g>
</svg>