<?xml version="1.0" encoding="UTF-8"?>
<svg width="30px" height="29px" viewBox="0 0 30 29" version="1.1" xmlns="http://www.w3.org/2000/svg" xmlns:xlink="http://www.w3.org/1999/xlink">
    <!-- Generator: Sketch 44.1 (41455) - http://www.bohemiancoding.com/sketch -->
    <title>LinkedIn</title>
    <desc>Created with Sketch.</desc>
    <defs></defs>
    <g id="Page-1" stroke="none" stroke-width="1" fill="none" fill-rule="evenodd">
        <g id="LinkedIn" fill="#444444">
            <rect id="Rectangle-path" x="10.5" y="13.1" width="2" height="6.1"></rect>
            <path d="M11.5,10.1 C10.8,10.1 10.4,10.6 10.4,11.2 C10.4,11.8 10.8,12.3 11.5,12.3 L11.5,12.3 C12.2,12.3 12.6,11.8 12.6,11.2 C12.7,10.6 12.2,10.1 11.5,10.1 L11.5,10.1 Z" id="Shape"></path>
            <path d="M17.5,12.9 C16.4,12.9 15.9,13.5 15.7,13.9 L15.7,13.9 L15.7,13.9 L15.7,13.9 L15.7,13 L13.7,13 L13.7,19.1 L15.7,19.1 L15.7,15.7 C15.7,15.5 15.7,15.3 15.8,15.2 C15.9,14.8 16.3,14.5 16.8,14.5 C17.5,14.5 17.8,15.1 17.8,15.9 L17.8,19.2 L19.8,19.2 L19.8,15.7 C19.9,13.8 18.9,12.9 17.5,12.9 L17.5,12.9 Z" id="Shape"></path>
            <path d="M15.2,0.3 C7.3,0.3 0.9,6.7 0.9,14.6 C0.9,22.5 7.3,28.9 15.2,28.9 C23.1,28.9 29.5,22.5 29.5,14.6 C29.5,6.7 23.1,0.3 15.2,0.3 L15.2,0.3 Z M21.9,20.4 C21.9,20.9 21.5,21.4 20.9,21.4 L9.4,21.4 C8.8,21.4 8.4,21 8.4,20.4 L8.4,8.8 C8.4,8.3 8.8,7.8 9.4,7.8 L20.9,7.8 C21.4,7.8 21.9,8.2 21.9,8.8 L21.9,20.4 L21.9,20.4 Z" id="Shape"></path>
        </g>
    </g>
</svg>