<?xml version="1.0" encoding="UTF-8"?>
<svg width="80px" height="80px" viewBox="0 0 80 80" version="1.1" xmlns="http://www.w3.org/2000/svg" xmlns:xlink="http://www.w3.org/1999/xlink">
    <!-- Generator: Sketch 44.1 (41455) - http://www.bohemiancoding.com/sketch -->
    <title>Combined Shape</title>
    <desc>Created with Sketch.</desc>
    <defs></defs>
    <g id="Page-1" stroke="none" stroke-width="1" fill="none" fill-rule="evenodd">
        <g id="Desktop-HD" transform="translate(-34.000000, -33.000000)" fill-rule="nonzero" fill="#000000">
            <g id="ngLogoBlack" transform="translate(34.000000, 33.000000)">
                <path d="M39.9197436,0.000676612876 C17.8727596,0.000676612876 0,17.8717345 0,39.9187185 C0,61.9657025 17.8676545,79.8367604 39.9180419,79.8367604 C61.9684292,79.8367604 79.8360838,61.9691059 79.8360838,39.9187185 C79.8360838,17.8683311 61.9667276,0.000676612876 39.9197436,0.000676612876 Z M61.0325045,48.343743 C60.8487229,48.6075036 60.7721472,49.0244156 60.4198992,49.5655503 C60.3058865,49.3817687 60.1901722,49.1996888 60.0693528,49.0193105 C59.4435195,48.1161488 58.6656469,47.328488 57.7703813,46.6914104 C56.8611376,46.0125899 55.8472295,45.4866682 54.7686153,45.1343719 C53.9450015,44.867208 53.1111776,44.6119557 52.2671437,44.4213674 C51.4231097,44.2307791 50.5654623,44.1201698 49.7146216,44.0010521 C49.0594743,43.910863 48.3958185,43.8598126 47.7355662,43.7968504 C47.4667005,43.7713251 47.1978348,43.750905 46.9289692,43.7457999 C46.3231706,43.7338882 45.7190737,43.7287831 45.1149768,43.7202747 C45.1149768,43.3425014 45.1507121,43.2455056 45.1949559,42.7315978 C45.6220779,42.4729423 44.9192835,42.522291 46.449095,42.3282993 C46.900352,42.2619369 47.346633,42.1652901 47.7849149,42.0390135 C48.3328563,41.8297067 48.6544741,41.6033831 48.7344531,41.3787611 C48.9437599,40.9278156 49.0560709,40.0429412 49.0560709,38.7207348 C49.0560709,36.4353767 49.0407558,34.6639264 49.023739,33.4455225 L49.0560709,28.6961298 C49.0560709,22.9478501 48.6834027,19.3573023 47.9601881,17.9415034 C46.9289692,15.8807673 45.365124,14.8665652 43.3043878,14.8665652 C41.7915931,14.8665652 40.2107311,15.2528468 38.5686085,16.0254102 C36.926486,16.7979735 35.2486282,17.9874488 33.5129132,19.5666092 L33.4193207,20.2591935 L33.4720728,22.8372408 L33.342745,25.5888596 L33.1147197,31.9463412 L33.1011063,33.1375182 C33.1011063,35.0536114 33.1147197,34.9378971 33.1368416,36.0473933 C33.065371,37.1432762 33.0143205,37.9822051 33.0143205,37.9822051 C33.0143205,38.431449 32.9887953,38.5080246 32.9887953,38.8449575 C32.9887953,38.8602727 32.9887953,39.2839913 32.9887953,39.2839913 C32.7114212,41.5693494 32.9360432,40.8410298 32.4527657,41.982858 C31.9065259,43.2880476 28.7090666,42.2006732 28.6546128,43.8921445 C28.6392977,44.4400859 28.8962516,44.9386786 29.3795291,45.374309 C29.8628066,45.8099394 30.6506851,46.0975236 31.761883,46.2591833 C31.986505,46.2898136 32.2723874,46.3544775 32.6654758,46.4293515 C34.1136067,46.5263473 36.0296999,46.5995196 38.427369,46.5995196 C38.7336716,46.5995196 39.7002267,46.5501708 41.3202273,46.4701918 C41.786488,46.4378599 42.1897865,46.4378599 42.5114043,46.4378599 C49.0339491,46.4378599 53.5910518,47.4690788 56.2150445,49.5468318 C58.7896884,51.6058662 60.094878,54.1498799 60.094878,57.1465408 C60.094878,58.7563314 59.6439325,60.3184749 58.7335329,61.8636016 C57.8178533,63.3993167 56.5431061,64.6898302 55.0187625,65.6243175 C53.4736358,66.5908725 51.2189079,67.4451165 48.2886126,68.2176799 C45.2101948,68.9973841 42.0453915,69.3839075 38.8698062,69.3680165 C35.2469265,69.3680165 31.9933117,69.0140668 29.1293819,68.3044656 C26.2654521,67.5948645 23.9834974,66.4190027 22.351585,64.8245272 C21.0957441,63.6163334 20.4666892,62.3287279 20.4644203,60.9617105 C20.4644203,59.6241889 20.9953449,58.4091884 22.041879,57.3711628 C23.088413,56.3331371 25.8196116,55.0211408 30.2320715,53.5542914 C26.559843,52.62177 24.0890017,51.4765384 22.8654927,50.2377144 C21.6419838,48.9988904 21.0157651,47.4690788 21.0157651,45.9392672 C21.0157651,44.7157583 21.3033492,43.4905477 21.9618999,42.831997 C22.2852194,42.5103792 23.1530769,41.865442 24.6624683,40.4972902 C24.8105146,39.8676681 24.8326364,38.7581718 24.8326364,37.1636963 L24.8326364,33.6054806 L24.9126154,30.7126222 L24.8343381,26.40907 L24.8343381,23.8157076 C24.8523479,22.4016669 24.6974814,20.9907247 24.3731824,19.6142562 C24.27959,19.1939409 23.8813965,18.7923441 23.31814,18.3737305 C22.543875,17.8274908 21.2608072,17.2965662 19.4195879,16.7860618 L19.3889577,14.8155147 C19.7429074,14.7202206 20.0696302,14.6453466 20.3384959,14.5908928 C20.6073615,14.536439 21.7236645,14.2845901 23.6397578,13.8013126 C25.1372374,13.2533712 26.1037924,12.8670895 26.5326161,12.6577827 C26.6789607,12.5778037 26.8882675,12.4484759 27.1928685,12.2868162 C27.5433762,11.9941939 27.9091862,11.7204044 28.2887513,11.4666058 C29.1089617,10.9033492 30.0908319,9.90446226 31.2343618,8.48866335 L33.4465476,8.31849521 L33.3665686,12.9402618 C33.3172198,13.3912074 33.2865895,13.7604723 33.2865895,14.034443 C33.2865895,14.2607666 33.3172198,14.8852837 33.3665686,15.919906 C35.6207292,13.9538967 37.6763603,12.5925516 39.5334619,11.8358706 C41.9481478,10.8148618 44.2505227,10.3213742 46.4252715,10.3213742 C48.9777936,10.3213742 51.2393281,10.9492946 53.1707365,12.2204506 C55.1021449,13.4916066 56.3596874,14.9567543 56.9552759,16.6312088 C57.5508644,18.3056632 57.8469569,21.6545722 57.8469569,26.7102676 L57.6869989,40.0565547 C57.6705083,40.6129749 57.7341216,41.168875 57.8758855,41.7071856 C58.0290368,42.39977 59.5112013,44.0504009 60.4284076,44.867208 L61.4017693,46.1315572 C61.590656,46.6777969 61.4068744,47.8094151 61.0325045,48.343743 Z M27.9211881,60.8596096 C27.9211881,61.8108495 28.3381001,62.7603877 29.177029,63.6946108 C30.0159579,64.6288339 31.4487736,65.3843804 33.4312325,65.9323218 C35.5261877,66.4918312 37.6867489,66.7676963 39.8550797,66.7525322 C40.515332,66.7525322 41.4972022,66.6878683 42.8023918,66.5823641 C46.8274355,66.1285824 49.9619326,65.0389391 52.2058831,63.3134341 C53.6216821,62.2022362 54.3312832,61.0910383 54.3312832,60.0138739 C54.33029,59.3951195 54.1753173,58.78634 53.8803376,58.2424236 C53.574035,57.6791671 53.0431104,57.1142089 52.270547,56.552654 C51.4810355,55.9868635 50.5820833,55.5921592 49.6312392,55.393809 C48.2460706,55.1198383 46.3980446,54.9751954 44.1075814,54.9751954 L39.084218,54.8935147 C34.6734599,54.8935147 31.6938158,55.4431578 30.1980378,56.5373389 C28.7022599,57.63152 27.9211881,59.0609324 27.9211881,60.8596096 Z" id="Combined-Shape"></path>
            </g>
        </g>
    </g>
</svg>