<?xml version="1.0" standalone="no"?>
<!DOCTYPE svg PUBLIC "-//W3C//DTD SVG 20010904//EN"
 "http://www.w3.org/TR/2001/REC-SVG-20010904/DTD/svg10.dtd">
<svg version="1.0" xmlns="http://www.w3.org/2000/svg"
 width="260.000000pt" height="260.000000pt" viewBox="0 0 260.000000 260.000000"
 preserveAspectRatio="xMidYMid meet">
<metadata>
Created by potrace 1.11, written by Peter Selinger 2001-2013
</metadata>
<g transform="translate(0.000000,260.000000) scale(0.100000,-0.100000)"
fill="#000000" stroke="none">
<path d="M1168 2595 c-2 -1 -23 -5 -48 -8 -340 -40 -669 -241 -882 -539 -269
-374 -311 -900 -106 -1313 87 -174 232 -352 383 -467 388 -295 924 -345 1359
-126 129 65 206 120 321 227 246 230 395 571 398 910 1 84 -10 238 -17 250 -2
3 -7 24 -10 45 -9 58 -62 211 -102 293 -119 249 -338 470 -592 597 -121 61
-225 93 -384 120 -66 11 -310 20 -320 11z m-83 -385 c-1 -66 -1 -120 1 -120 1
0 36 24 77 53 41 29 89 59 108 66 19 7 43 17 54 22 34 16 167 36 215 32 160
-12 297 -119 326 -253 4 -19 8 -192 9 -385 2 -192 3 -359 4 -370 1 -11 28 -51
61 -89 33 -38 60 -75 60 -83 0 -7 -7 -31 -16 -54 l-17 -41 -38 45 c-71 82
-206 133 -379 142 -36 2 -68 4 -72 4 -5 1 -8 10 -8 20 0 15 10 21 40 26 22 4
50 15 62 25 22 17 22 20 21 311 0 162 -3 312 -7 334 -15 93 -20 112 -42 145
-76 115 -252 94 -427 -52 l-28 -23 -4 -160 c-3 -88 -7 -243 -10 -345 -3 -103
-10 -197 -16 -213 -11 -26 -21 -31 -83 -42 -49 -7 -59 -39 -23 -72 39 -37 98
-44 366 -48 276 -3 283 -4 381 -34 277 -86 340 -393 115 -563 -78 -59 -254
-118 -397 -134 -72 -7 -288 -7 -327 0 -14 3 -46 8 -71 11 -25 4 -78 17 -118
31 -189 63 -275 181 -216 295 23 46 85 88 189 129 96 37 99 39 72 49 -16 6
-33 11 -38 11 -17 0 -133 58 -155 77 -55 49 -80 129 -63 198 8 29 25 53 62 86
l52 47 1 302 c1 195 -2 317 -10 345 -13 52 -53 86 -121 105 -42 12 -45 15 -45
45 0 32 2 34 53 45 82 19 169 51 202 73 17 11 56 44 87 74 42 39 64 53 86 53
l30 0 -3 -120z"/>
<path d="M1188 815 c-2 -2 -31 -6 -66 -9 -79 -8 -145 -39 -180 -84 -36 -47
-38 -131 -6 -177 51 -71 210 -117 384 -111 104 4 129 7 204 27 109 29 207 95
232 155 35 83 -53 174 -181 189 -50 6 -382 14 -387 10z"/>
</g>
</svg>
