<svg id="logo-svg" xmlns="http://www.w3.org/2000/svg" width="80" height="80" viewBox="0 0 80 80"><title>ng-logo</title> <g stroke-width:1;stroke:none"><g id="logo"><path d="M39.9 0C17.9 0 0 17.9 0 39.9 0 62 17.9 79.8 39.9 79.8 62 79.8 79.8 62 79.8 39.9 79.8 17.9 62 0 39.9 0ZM61 48.3C60.8 48.6 60.8 49 60.4 49.6 60.3 49.4 60.2 49.2 60.1 49 59.4 48.1 58.7 47.3 57.8 46.7 56.9 46 55.8 45.5 54.8 45.1 53.9 44.9 53.1 44.6 52.3 44.4 51.4 44.2 50.6 44.1 49.7 44 49.1 43.9 48.4 43.9 47.7 43.8 47.5 43.8 47.2 43.8 46.9 43.7 46.3 43.7 45.7 43.7 45.1 43.7 45.1 43.3 45.2 43.2 45.2 42.7 45.6 42.5 44.9 42.5 46.4 42.3 46.9 42.3 47.3 42.2 47.8 42 48.3 41.8 48.7 41.6 48.7 41.4 48.9 40.9 49.1 40 49.1 38.7 49.1 36.4 49 34.7 49 33.4L49.1 28.7C49.1 22.9 48.7 19.4 48 17.9 46.9 15.9 45.4 14.9 43.3 14.9 41.8 14.9 40.2 15.3 38.6 16 36.9 16.8 35.2 18 33.5 19.6L33.4 20.3 33.5 22.8 33.3 25.6 33.1 31.9 33.1 33.1C33.1 35.1 33.1 34.9 33.1 36 33.1 37.1 33 38 33 38 33 38.4 33 38.5 33 38.8 33 38.9 33 39.3 33 39.3 32.7 41.6 32.9 40.8 32.5 42 31.9 43.3 28.7 42.2 28.7 43.9 28.6 44.4 28.9 44.9 29.4 45.4 29.9 45.8 30.7 46.1 31.8 46.3 32 46.3 32.3 46.4 32.7 46.4 34.1 46.5 36 46.6 38.4 46.6 38.7 46.6 39.7 46.6 41.3 46.5 41.8 46.4 42.2 46.4 42.5 46.4 49 46.4 53.6 47.5 56.2 49.5 58.8 51.6 60.1 54.1 60.1 57.1 60.1 58.8 59.6 60.3 58.7 61.9 57.8 63.4 56.5 64.7 55 65.6 53.5 66.6 51.2 67.4 48.3 68.2 45.2 69 42 69.4 38.9 69.4 35.2 69.4 32 69 29.1 68.3 26.3 67.6 24 66.4 22.4 64.8 21.1 63.6 20.5 62.3 20.5 61 20.5 59.6 21 58.4 22 57.4 23.1 56.3 25.8 55 30.2 53.6 26.6 52.6 24.1 51.5 22.9 50.2 21.6 49 21 47.5 21 45.9 21 44.7 21.3 43.5 22 42.8 22.3 42.5 23.2 41.9 24.7 40.5 24.8 39.9 24.8 38.8 24.8 37.2L24.8 33.6 24.9 30.7 24.8 26.4 24.8 23.8C24.9 22.4 24.7 21 24.4 19.6 24.3 19.2 23.9 18.8 23.3 18.4 22.5 17.8 21.3 17.3 19.4 16.8L19.4 14.8C19.7 14.7 20.1 14.6 20.3 14.6 20.6 14.5 21.7 14.3 23.6 13.8 25.1 13.3 26.1 12.9 26.5 12.7 26.7 12.6 26.9 12.4 27.2 12.3 27.5 12 27.9 11.7 28.3 11.5 29.1 10.9 30.1 9.9 31.2 8.5L33.4 8.3 33.4 12.9C33.3 13.4 33.3 13.8 33.3 14 33.3 14.3 33.3 14.9 33.4 15.9 35.6 14 37.7 12.6 39.5 11.8 41.9 10.8 44.3 10.3 46.4 10.3 49 10.3 51.2 10.9 53.2 12.2 55.1 13.5 56.4 15 57 16.6 57.6 18.3 57.8 21.7 57.8 26.7L57.7 40.1C57.7 40.6 57.7 41.2 57.9 41.7 58 42.4 59.5 44.1 60.4 44.9L61.4 46.1C61.6 46.7 61.4 47.8 61 48.3ZM27.9 60.9C27.9 61.8 28.3 62.8 29.2 63.7 30 64.6 31.4 65.4 33.4 65.9 35.5 66.5 37.7 66.8 39.9 66.8 40.5 66.8 41.5 66.7 42.8 66.6 46.8 66.1 50 65 52.2 63.3 53.6 62.2 54.3 61.1 54.3 60 54.3 59.4 54.2 58.8 53.9 58.2 53.6 57.7 53 57.1 52.3 56.6 51.5 56 50.6 55.6 49.6 55.4 48.2 55.1 46.4 55 44.1 55L39.1 54.9C34.7 54.9 31.7 55.4 30.2 56.5 28.7 57.6 27.9 59.1 27.9 60.9Z"/></g></g></svg>